# xmcd CD database file generated by LOLA_Freedb v0.9beta0
# 
# Track frame offsets:
#      190
#      24241
#      37588
#      54349
#      66141
#      89737
#      110076
#      123851
#      146727
#      158827
#      183760
#      197233
# 
# Disc length: 2880 seconds
# 
# Revision: 1 
# Processed by: cddbd v1.5.1PL2 Copyright (c) Steve Scherf et al.
# Submitted via: LOLA_Freedb v0.9beta0
# 
DISCID=9c0b3e0c
DTITLE=Pius Holzer - Country Gospel  .... uf Wallisertytsch!
DYEAR=1999
DGENRE=Country
TTITLE0=Pius Holzer - Eng verbunnu sy mit Dier
TTITLE1=Aer het di Bibul gschribu
TTITLE2=Ich chumu us keim Stüünu meh
TTITLE3=Nix het schi' gändrut
TTITLE4=Ich leggu myni Seel in Schyni Hend
TTITLE5=Ei Tag na'm andru
TTITLE6=Aes isch Chraft in dem Blüet
TTITLE7=Warum frägsch dü mich?
TTITLE8=Gang der Wäg mit Jesus!
TTITLE9=A herrlichi Züeversicht
TTITLE10=Dü brüüchusch Jesus!
TTITLE11=As persönlichs Wort zum Schluss
EXTD=YEAR: 1999
EXTT0=
EXTT1=
EXTT2=
EXTT3=
EXTT4=
EXTT5=
EXTT6=
EXTT7=
EXTT8=
EXTT9=
EXTT10=
EXTT11=
PLAYORDER=
